<svg id="Layer_1" data-name="Layer 1" xmlns="http://www.w3.org/2000/svg" xmlns:xlink="http://www.w3.org/1999/xlink" viewBox="0 0 1024 1024"><defs><style>.cls-1{fill:url(#linear-gradient);}.cls-2{fill:url(#linear-gradient-2);}.cls-3{fill:url(#linear-gradient-3);}</style><linearGradient id="linear-gradient" x1="651.42" y1="212.59" x2="651.42" y2="811.41" gradientUnits="userSpaceOnUse"><stop offset="0" stop-color="#61e4d2"/><stop offset="1" stop-color="#2bc7ed"/></linearGradient><linearGradient id="linear-gradient-2" x1="327.97" y1="586.34" x2="208.12" y2="618.45" gradientUnits="userSpaceOnUse"><stop offset="0.35" stop-color="#61e4d2"/><stop offset="0.97" stop-color="#2bc7ed"/></linearGradient><linearGradient id="linear-gradient-3" x1="76.95" y1="561.75" x2="423.15" y2="629.04" gradientUnits="userSpaceOnUse"><stop offset="0.25" stop-color="#61e4d2"/><stop offset="0.75" stop-color="#2bc7ed"/></linearGradient></defs><title>Artboard 1</title><path class="cls-1" d="M913.86,233.43C903.5,257,881,280.6,850.47,297.64c-1.89,1.09-3.82,2.12-5.8,3.13a182.14,182.14,0,0,1-21.52,9.41l-4.25,83-2.73,54.06-39.8,27.86L763.74,388l-7.06-48.49q-12,6.37-23.76,13.26C563.49,451.52,437.16,616.07,389,811.41,418.74,597,541,412.27,714.16,298.67c2.93-1.92,5.88-3.82,8.84-5.71L705.81,284l-93-48.38,57.64-23.07L715,229.7,786.29,257l3,1.12a183.18,183.18,0,0,1,18.28-10.76C845.94,227.63,886.14,223.35,913.86,233.43Z"/><path class="cls-2" d="M388.1,810.72c-125-60.48-215.91-224.83-225.24-420.63l52.71,1v1.43C215.57,572.54,285.23,729.26,388.1,810.72Z"/><path class="cls-3" d="M387.86,810.63C262.81,750.14,119.47,586.8,110.14,391l52.71-1C182.86,607,285,729.17,387.86,810.63Z"/></svg>